HIERARCHY
ROOT hip
{
  OFFSET 0 0 0
  CHANNELS 6 Xposition Yposition Zposition Zrotation Yrotation Xrotation
  JOINT abdomen
  {
    OFFSET 0 20.6881 -0.73152
    CHANNELS 3 Zrotation Xrotation Yrotation
    JOINT chest
    {
      OFFSET 0 11.7043 -0.48768
      CHANNELS 3 Zrotation Xrotation Yrotation
      JOINT neck
      {
        OFFSET 0 22.1894 -2.19456
        CHANNELS 3 Zrotation Xrotation Yrotation
        JOINT head
        {
          OFFSET -0.24384 7.07133 1.2192
          CHANNELS 3 Zrotation Xrotation Yrotation
          JOINT leftEye
          {
            OFFSET 4.14528 8.04674 8.04672
            CHANNELS 3 Zrotation Xrotation Yrotation
            End Site
            {
              OFFSET 1 0 0
            }
          }
          JOINT rightEye
          {
            OFFSET -3.6576 8.04674 8.04672
            CHANNELS 3 Zrotation Xrotation Yrotation
            End Site
            {
              OFFSET 1 0 0
            }
          }
        }
      }
      JOINT rCollar
      {
        OFFSET -2.68224 19.2634 -4.8768
        CHANNELS 3 Zrotation Xrotation Yrotation
        JOINT rShldr
        {
          OFFSET -8.77824 -1.95073 1.46304
          CHANNELS 3 Zrotation Xrotation Yrotation
          JOINT rForeArm
          {
            OFFSET -28.1742 -1.7115 0.48768
            CHANNELS 3 Zrotation Xrotation Yrotation
            JOINT rHand
            {
              OFFSET -22.5879 0.773209 7.07136
              CHANNELS 3 Zrotation Xrotation Yrotation
              JOINT rThumb1
              {
                OFFSET -1.2192 -0.487915 3.41376
                CHANNELS 3 Zrotation Xrotation Yrotation
                JOINT rThumb2
                {
                  OFFSET -3.37035 -0.52449 3.41376
                  CHANNELS 3 Zrotation Xrotation Yrotation
                  End Site
                  {
                    OFFSET -1.78271 -1.18214 1.43049
                  }
                }
              }
              JOINT rIndex1
              {
                OFFSET -7.75947 0.938293 5.60832
                CHANNELS 3 Zrotation Xrotation Yrotation
                JOINT rIndex2
                {
                  OFFSET -2.54057 -0.884171 1.56538
                  CHANNELS 3 Zrotation Xrotation Yrotation
                  End Site
                  {
                    OFFSET -1.62519 -0.234802 1.16502
                  }
                }
              }
              JOINT rMid1
              {
                OFFSET -8.24714 1.18213 3.41376
                CHANNELS 3 Zrotation Xrotation Yrotation
                JOINT rMid2
                {
                  OFFSET -3.10165 -0.590103 1.0647
                  CHANNELS 3 Zrotation Xrotation Yrotation
                  End Site
                  {
                    OFFSET -2.48547 -0.328903 0.83742
                  }
                }
              }
              JOINT rRing1
              {
                OFFSET -8.82822 0.546677 1.51678
                CHANNELS 3 Zrotation Xrotation Yrotation
                JOINT rRing2
                {
                  OFFSET -2.60934 -0.819778 -0.0198488
                  CHANNELS 3 Zrotation Xrotation Yrotation
                  End Site
                  {
                    OFFSET -2.33842 -0.294052 0.168128
                  }
                }
              }
              JOINT rPinky1
              {
                OFFSET -8.27202 -0.0477905 -0.4584
                CHANNELS 3 Zrotation Xrotation Yrotation
                JOINT rPinky2
                {
                  OFFSET -1.82734 -0.647385 -0.700984
                  CHANNELS 3 Zrotation Xrotation Yrotation
                  End Site
                  {
                    OFFSET -1.69225 -0.51767 -0.607171
                  }
                }
              }
            }
          }
        }
      }
      JOINT lCollar
      {
        OFFSET 2.68224 19.2634 -4.8768
        CHANNELS 3 Zrotation Xrotation Yrotation
        JOINT lShldr
        {
          OFFSET 8.77824 -1.95073 1.46304
          CHANNELS 3 Zrotation Xrotation Yrotation
          JOINT lForeArm
          {
            OFFSET 28.1742 -1.7115 0.48768
            CHANNELS 3 Zrotation Xrotation Yrotation
            JOINT lHand
            {
              OFFSET 22.5879 0.773209 7.07136
              CHANNELS 3 Zrotation Xrotation Yrotation
              JOINT lThumb1
              {
                OFFSET 1.2192 -0.487915 3.41376
                CHANNELS 3 Zrotation Xrotation Yrotation
                JOINT lThumb2
                {
                  OFFSET 3.37035 -0.52449 3.41376
                  CHANNELS 3 Zrotation Xrotation Yrotation
                  End Site
                  {
                    OFFSET 1.78271 -1.18214 1.43049
                  }
                }
              }
              JOINT lIndex1
              {
                OFFSET 7.75947 0.938293 5.60832
                CHANNELS 3 Zrotation Xrotation Yrotation
                JOINT lIndex2
                {
                  OFFSET 2.54057 -0.884171 1.56538
                  CHANNELS 3 Zrotation Xrotation Yrotation
                  End Site
                  {
                    OFFSET 1.62519 -0.234802 1.16502
                  }
                }
              }
              JOINT lMid1
              {
                OFFSET 8.24714 1.18213 3.41376
                CHANNELS 3 Zrotation Xrotation Yrotation
                JOINT lMid2
                {
                  OFFSET 3.10165 -0.590103 1.0647
                  CHANNELS 3 Zrotation Xrotation Yrotation
                  End Site
                  {
                    OFFSET 2.48547 -0.328903 0.83742
                  }
                }
              }
              JOINT lRing1
              {
                OFFSET 8.82822 0.546677 1.51678
                CHANNELS 3 Zrotation Xrotation Yrotation
                JOINT lRing2
                {
                  OFFSET 2.60934 -0.819778 -0.0198488
                  CHANNELS 3 Zrotation Xrotation Yrotation
                  End Site
                  {
                    OFFSET 2.33842 -0.294052 0.168128
                  }
                }
              }
              JOINT lPinky1
              {
                OFFSET 8.27202 -0.0477905 -0.4584
                CHANNELS 3 Zrotation Xrotation Yrotation
                JOINT lPinky2
                {
                  OFFSET 1.82734 -0.647385 -0.700984
                  CHANNELS 3 Zrotation Xrotation Yrotation
                  End Site
                  {
                    OFFSET 1.69225 -0.51767 -0.607171
                  }
                }
              }
            }
          }
        }
      }
    }
  }
  JOINT rButtock
  {
    OFFSET -8.77824 4.35084 1.2192
    CHANNELS 3 Zrotation Xrotation Yrotation
    JOINT rThigh
    {
      OFFSET 0 -1.70687 -2.19456
      CHANNELS 3 Zrotation Xrotation Yrotation
      JOINT rShin
      {
        OFFSET 0 -36.8199 0.73152
        CHANNELS 3 Zrotation Xrotation Yrotation
        JOINT rFoot
        {
          OFFSET 0.73152 -45.1104 -5.12064
          CHANNELS 3 Zrotation Xrotation Yrotation
          End Site
          {
            OFFSET -1.1221 -3.69964 12.103
          }
        }
      }
    }
  }
  JOINT lButtock
  {
    OFFSET 8.77824 4.35084 1.2192
    CHANNELS 3 Zrotation Xrotation Yrotation
    JOINT lThigh
    {
      OFFSET 0 -1.70687 -2.19456
      CHANNELS 3 Zrotation Xrotation Yrotation
      JOINT lShin
      {
        OFFSET 0 -36.8199 0.73152
        CHANNELS 3 Zrotation Xrotation Yrotation
        JOINT lFoot
        {
          OFFSET -0.73152 -45.1104 -5.12064
          CHANNELS 3 Zrotation Xrotation Yrotation
          End Site
          {
            OFFSET 1.1221 -3.69964 12.103
          }
        }
      }
    }
  }
}
MOTION
Frames:	7
Frame Time:	0.00833333
-2.84263 84.2564 36.8187 0.0 0.0 0.0 -1.24155 -0.00398225 -0.0340845 -0.342546 -0.00249484 -0.0593362 -2.04651e-14 -7.95139e-16 1.86361e-16 -6.17133e-14 3.18055e-15 5.18704e-16 -0.0 0.0 0.0 -0.0 0.0 0.0 -1.01397e-14 -3.88251e-18 3.47873e-16 -2.13588e-13 3.10601e-17 1.98785e-15 -3.69809e-12 1.10604e-12 8.5875e-14 -4.23546e-11 -1.11985e-12 2.76708e-13 -9.9897e-11 -3.12281e-14 8.30125e-13 -1.72529e-10 -5.725e-14 1.42886e-12 -9.98941e-11 -3.18055e-14 8.20583e-13 7.73091 5.47488 0.417314 -9.98971e-11 -3.15074e-14 8.30125e-13 2.90554 0.965183 0.102902 -9.98971e-11 -3.12092e-14 8.28535e-13 10.2786 0.731801 0.0259123 -9.99042e-11 -2.94201e-14 8.39666e-13 2.22167 -0.733487 -0.20892 -1.03358e-14 -4.27076e-18 -1.49089e-16 -2.16709e-13 1.49089e-16 7.95139e-16 -3.70475e-12 -1.10842e-12 6.67917e-14 -4.23485e-11 1.08827e-12 3.33958e-13 -9.98942e-11 -4.4973e-14 8.39666e-13 -1.72495e-10 -8.26944e-14 1.45987e-12 -9.99012e-11 -4.41302e-14 8.49208e-13 -7.73091 5.47488 -0.417314 -9.98938e-11 -4.49253e-14 8.36486e-13 -2.90554 0.965183 -0.102902 -9.98948e-11 -4.51241e-14 8.36486e-13 -10.2786 0.731801 -0.0259123 -9.98851e-11 -4.05521e-14 8.26944e-13 -2.22167 -0.733487 0.20892 -2.03217e-16 0.0 -3.88251e-19 -0.461596 -1.92099 -0.00939741 -0.00910156 -2.07858 -0.0750744 -0.47969 3.99702 0.135506 2.03217e-16 0.0 3.88251e-19 -1.43698 -5.97121 0.129648 -0.00126583 5.25806 -0.0454291 0.507527 0.710697 -0.0722385
-3.26181 83.8496 35.1378 -0.3672 -3.4947 4.0155 -1.29597 -0.415919 0.567708 0.0988174 -1.15659 0.137636 -0.510482 1.26644 -0.545257 0.977063 0.224717 -0.988703 -0.0 0.0 0.0 -0.0 0.0 0.0 -7.07548e-15 3.41822e-16 1.10791e-14 22.746 8.25731 -4.25645 -6.65517 -3.74305 9.49534 0.0587197 5.37957 0.744064 -1.13342e-10 1.55282e-11 3.04134e-11 -1.94876e-10 2.54823e-11 5.32724e-11 -1.13335e-10 1.55279e-11 3.0405e-11 7.73091 5.47488 0.417314 -1.13342e-10 1.55272e-11 3.04124e-11 2.90554 0.965183 0.102902 -1.1334e-10 1.55272e-11 3.0414e-11 10.2786 0.731801 0.0259123 -1.13349e-10 1.55291e-11 3.0425e-11 2.22167 -0.733487 -0.20892 -7.27787e-15 3.41434e-16 1.0666e-14 -23.0861 7.95841 1.82336 5.16594 -2.57251 -7.80916 -0.0170739 2.89917 -0.40557 -1.55152e-10 -1.88832e-11 3.62208e-12 -2.6832e-10 -3.21446e-11 7.00761e-12 -1.55159e-10 -1.88819e-11 3.63257e-12 -7.73091 5.47488 -0.417314 -1.5515e-10 -1.8881e-11 3.62253e-12 -2.90554 0.965183 -0.102902 -1.55155e-10 -1.88814e-11 3.62055e-12 -10.2786 0.731801 -0.0259123 -1.55145e-10 -1.88783e-11 3.6103e-12 -2.22167 -0.733487 0.20892 -2.03217e-16 0.0 -3.88251e-19 -2.47904 -1.50841 1.5787 -0.00521477 -1.61278 -0.0474213 -0.54677 -0.461735 -3.15897 2.03217e-16 0.0 3.88251e-19 0.70687 -7.01987 -1.71781 -0.0129904 9.33772 -0.162233 0.905463 -4.46628 4.08121
-3.26616 83.8482 35.1344 -0.3881 -3.4952 4.0306 -1.34459 -0.849946 1.20413 0.574049 -2.37704 0.346134 -1.0229 2.6062 -1.12258 2.01836 0.460595 -2.03398 -0.0 0.0 0.0 -0.0 0.0 0.0 -3.73272e-15 9.17414e-16 2.34566e-14 48.175 16.8336 -9.05637 -12.3584 -7.35668 19.6596 -0.0337342 11.0632 1.55273 -1.32072e-10 3.56449e-11 6.24071e-11 -2.26275e-10 5.87287e-11 1.09405e-10 -1.32061e-10 3.56449e-11 6.24001e-11 7.73091 5.47488 0.417314 -1.32072e-10 3.56433e-11 6.24051e-11 2.90554 0.965183 0.102902 -1.32068e-10 3.56427e-11 6.241e-11 10.2786 0.731801 0.0259123 -1.32078e-10 3.56447e-11 6.2421e-11 2.22167 -0.733487 -0.20892 -3.94559e-15 9.17025e-16 2.31336e-14 -48.0628 16.3425 3.87177 9.87176 -5.13257 -16.1143 0.00973285 5.96572 -0.838088 -2.18033e-10 -3.90471e-11 6.40464e-12 -3.77344e-10 -6.64348e-11 1.2628e-11 -2.18041e-10 -3.90454e-11 6.41617e-12 -7.73091 5.47488 -0.417314 -2.1803e-10 -3.90426e-11 6.40902e-12 -2.90554 0.965183 -0.102902 -2.18038e-10 -3.90431e-11 6.40494e-12 -10.2786 0.731801 -0.0259123 -2.18028e-10 -3.90418e-11 6.39391e-12 -2.22167 -0.733487 0.20892 -2.03217e-16 0.0 -3.88251e-19 -4.63621 -1.07099 3.25724 -0.00159509 -1.12036 -0.0182072 -1.1755 -5.14171 -6.66793 2.03217e-16 0.0 3.88251e-19 2.89943 -8.11741 -3.68002 -0.00676795 13.6502 -0.289681 2.14999 -9.85243 8.5735
-3.26943 83.8476 35.1333 -0.4003 -3.5043 4.035 -1.37884 -1.23926 1.77166 1.00538 -3.46463 0.532471 -1.45901 3.79795 -1.63897 2.95445 0.673347 -2.96629 -0.0 0.0 0.0 -0.0 0.0 0.0 -9.47036e-16 1.03323e-15 3.25417e-14 72.1833 24.1987 -13.8773 -16.3674 -9.99707 28.9039 -0.2575 16.1276 2.31345 -1.40232e-10 4.66469e-11 8.95799e-11 -2.39571e-10 7.65615e-11 1.56959e-10 -1.40218e-10 4.66472e-11 8.95739e-11 7.73091 5.47488 0.417314 -1.40232e-10 4.66446e-11 8.95771e-11 2.90554 0.965183 0.102902 -1.40226e-10 4.66439e-11 8.95848e-11 10.2786 0.731801 0.0259123 -1.40238e-10 4.6646e-11 8.95956e-11 2.22167 -0.733487 -0.20892 -1.16201e-15 1.03284e-15 3.22963e-14 -70.8951 23.7739 5.92141 13.4456 -7.14531 -23.598 0.0731186 8.69576 -1.22928 -2.65667e-10 -5.65596e-11 9.18691e-12 -4.5997e-10 -9.62686e-11 1.81031e-11 -2.65675e-10 -5.65576e-11 9.19928e-12 -7.73091 5.47488 -0.417314 -2.65663e-10 -5.65533e-11 9.19461e-12 -2.90554 0.965183 -0.102902 -2.65674e-10 -5.65538e-11 9.18868e-12 -10.2786 0.731801 -0.0259123 -2.65665e-10 -5.65539e-11 9.17702e-12 -2.22167 -0.733487 0.20892 -2.03217e-16 0.0 -3.88251e-19 -6.58249 -0.68262 4.75358 0.00121009 -0.681171 0.00784289 -2.22554 -9.24476 -9.8765 2.03217e-16 0.0 3.88251e-19 4.78976 -9.08609 -5.44115 0.0157906 17.4967 -0.408681 3.99502 -14.5028 12.7641
-3.27301 83.8475 35.134 -0.4141 -3.51 4.0301 -1.39532 -1.5173 2.16661 1.31012 -4.22021 0.662541 -1.75561 4.621 -2.0 3.61133 0.829037 -3.61605 -0.0 0.0 0.0 -0.0 0.0 0.0 4.45951e-16 -3.88251e-19 3.33958e-14 89.7585 29.0798 -17.6947 -18.63 -11.3804 35.4492 -0.498472 19.6543 2.87714 -1.21968e-10 3.48621e-11 1.04701e-10 -2.07611e-10 5.58601e-11 1.8307e-10 -1.21953e-10 3.48629e-11 1.04694e-10 7.73091 5.47488 0.417314 -1.21968e-10 3.48591e-11 1.04698e-10 2.90554 0.965183 0.102902 -1.21961e-10 3.48592e-11 1.04706e-10 10.2786 0.731801 0.0259123 -1.21973e-10 3.48613e-11 1.04717e-10 2.22167 -0.733487 -0.20892 2.49818e-16 -7.76503e-19 3.3197e-14 -87.1729 28.9196 7.54768 15.6156 -8.33498 -28.8654 0.139453 10.5862 -1.50514 -2.75185e-10 -6.74437e-11 1.19684e-11 -4.76601e-10 -1.14961e-10 2.32149e-11 -2.75193e-10 -6.74417e-11 1.19811e-11 -7.73091 5.47488 -0.417314 -2.75181e-10 -6.74369e-11 1.1978e-11 -2.90554 0.965183 -0.102902 -2.75193e-10 -6.74369e-11 1.19708e-11 -10.2786 0.731801 -0.0259123 -2.75184e-10 -6.74377e-11 1.19589e-11 -2.22167 -0.733487 0.20892 -2.03217e-16 0.0 -3.88251e-19 -7.95299 -0.416401 5.79512 0.00293029 -0.375042 0.0260072 -3.23676 -12.0439 -12.1848 2.03217e-16 0.0 3.88251e-19 6.06878 -9.75775 -6.67777 0.0416007 20.1785 -0.495612 5.70747 -17.6188 15.8349
-3.2746 83.847 35.132 -0.4208 -3.5099 4.0371 -1.39577 -1.63967 2.32107 1.43064 -4.51237 0.713679 -1.88126 4.92646 -2.14158 3.87002 0.908751 -3.87062 -0.0 0.0 0.0 -0.0 0.0 0.0 -4.97674e-16 -4.08745e-15 2.02772e-14 96.8372 30.9043 -19.3157 -19.4115 -11.8008 38.0281 -0.613248 21.0353 3.10753 -5.85369e-11 -1.66973e-11 1.02826e-10 -9.82206e-11 -3.22433e-11 1.78813e-10 -5.8523e-11 -1.66954e-11 1.02817e-10 7.73091 5.47488 0.417314 -5.8536e-11 -1.6701e-11 1.02823e-10 2.90554 0.965183 0.102902 -5.853e-11 -1.66983e-11 1.0283e-10 10.2786 0.731801 0.0259123 -5.85413e-11 -1.66964e-11 1.0284e-10 2.22167 -0.733487 -0.20892 -6.33727e-16 -4.08789e-15 2.00792e-14 -93.6418 30.9471 8.2432 16.4016 -8.74633 -30.9447 0.169555 11.296 -1.61003 -2.14637e-10 -6.49736e-11 1.49589e-11 -3.71953e-10 -1.1114e-10 2.80456e-11 -2.14645e-10 -6.49722e-11 1.4971e-11 -7.73091 5.47488 -0.417314 -2.14635e-10 -6.49688e-11 1.49681e-11 -2.90554 0.965183 -0.102902 -2.14645e-10 -6.49671e-11 1.49605e-11 -10.2786 0.731801 -0.0259123 -2.14636e-10 -6.49676e-11 1.49488e-11 -2.22167 -0.733487 0.20892 -2.03217e-16 0.0 -3.88251e-19 -8.49801 -0.320484 6.20015 0.00355299 -0.255111 0.0331364 -3.69727 -13.125 -13.1099 2.03217e-16 0.0 3.88251e-19 6.55346 -10.0281 -7.17098 0.0540211 21.2301 -0.530652 6.48008 -18.8113 17.0833
-3.27336 83.8454 35.1257 -0.416 -3.5059 4.0641 -1.38668 -1.65097 2.30362 1.41782 -4.47348 0.708235 -1.88997 4.86259 -2.12579 3.84247 0.934197 -3.84284 -0.0 0.0 0.0 -0.0 0.0 0.0 -3.09189e-15 -1.02868e-14 -2.70534e-15 96.0294 30.6796 -19.1274 -19.3265 -11.7579 37.7404 -0.600166 20.8862 3.08233 3.67671e-11 -9.62921e-11 8.88174e-11 6.58063e-11 -1.6785e-10 1.52881e-10 3.67778e-11 -9.62886e-11 8.88039e-11 7.73091 5.47488 0.417314 3.6769e-11 -9.62966e-11 8.88162e-11 2.90554 0.965183 0.102902 3.6773e-11 -9.62901e-11 8.88191e-11 10.2786 0.731801 0.0259123 3.6764e-11 -9.62883e-11 8.88271e-11 2.22167 -0.733487 -0.20892 -3.13897e-15 -1.02873e-14 -2.93518e-15 -92.9304 30.771 8.1632 16.3221 -8.70783 -30.7266 0.16445 11.1629 -1.5904 -1.04838e-10 -5.3159e-11 1.80886e-11 -1.82054e-10 -9.1567e-11 3.26648e-11 -1.04845e-10 -5.31585e-11 1.80993e-11 -7.73091 5.47488 -0.417314 -1.0484e-10 -5.31576e-11 1.8096e-11 -2.90554 0.965183 -0.102902 -1.04844e-10 -5.31536e-11 1.80884e-11 -10.2786 0.731801 -0.0259123 -1.04836e-10 -5.31531e-11 1.80773e-11 -2.22167 -0.733487 0.20892 -2.03217e-16 0.0 -3.88251e-19 -8.44846 -0.345794 6.15051 0.00348969 -0.268181 0.0323838 -3.64625 -13.0113 -13.0097 2.03217e-16 0.0 3.88251e-19 6.48596 -10.0156 -7.13016 0.0524593 21.1174 -0.52661 6.39958 -18.6966 16.9558
